<?xml version="1.0" encoding="UTF-8" standalone="no"?>
<svg
   xmlns:dc="http://purl.org/dc/elements/1.1/"
   xmlns:cc="http://creativecommons.org/ns#"
   xmlns:rdf="http://www.w3.org/1999/02/22-rdf-syntax-ns#"
   xmlns:svg="http://www.w3.org/2000/svg"
   xmlns="http://www.w3.org/2000/svg"
   viewBox="0 0 302.35999 151.18668"
   height="151.18668"
   width="302.35999"
   xml:space="preserve"
   id="svg2"
   version="1.1"><metadata
     id="metadata8"><rdf:RDF><cc:Work
         rdf:about=""><dc:format>image/svg+xml</dc:format><dc:type
           rdf:resource="http://purl.org/dc/dcmitype/StillImage" /></cc:Work></rdf:RDF></metadata><defs
     id="defs6" /><g
     transform="matrix(1.3333333,0,0,-1.3333333,0,151.18667)"
     id="g10"><g
       transform="scale(0.1)"
       id="g12"><path
         id="path14"
         style="fill:#ffffff;fill-opacity:1;fill-rule:nonzero;stroke:none"
         d="M 2267.72,0.015625 H 0 V 1133.87 H 2267.72 V 0.015625" /><path
         id="path16"
         style="fill:#3e89d0;fill-opacity:1;fill-rule:nonzero;stroke:none"
         d="M 141.742,558.43 H 0.00390625 L 0.0234375,0.0195313 558.422,0 v 141.738 h 2.93 v 0 h 5.586 V 566.945 L 497.914,491.992 559.418,206.27 473.324,475.91 180.141,566.934 h -38.399 v -5.606 z m 126.113,-46.731 14.004,-4.355 c 23.438,-112.989 112.168,-202.02 224.903,-225.75 l 4.511,-14.082 C 387.797,290.383 290.492,387.969 267.855,511.699" /><path
         id="path18"
         style="fill:#3e89d0;fill-opacity:1;fill-rule:nonzero;stroke:none"
         d="m 1133.88,1133.87 -558.446,-0.02 V 992.133 h -8.496 V 566.945 l 69.023,74.934 -61.504,285.723 86.09,-269.649 293.172,-91.019 h 38.418 v 5.664 2.832 H 1133.88 Z M 622.582,866.371 C 746.102,843.5 843.438,745.867 866.063,622.094 l -14.02,4.336 c -23.41,113.066 -112.18,202.148 -224.969,225.859 l -4.492,14.082" /><path
         id="path20"
         style="fill:#1b458f;fill-opacity:1;fill-rule:nonzero;stroke:none"
         d="M 558.422,992.133 V 1133.85 L 0.0234375,1133.87 0.00390625,575.43 H 141.742 v -2.754 -5.731 h 425.196 l -74.844,69.114 -285.293,-61.606 269.238,86.235 90.899,293.597 v -387.34 425.188 h -5.684 z M 511.82,866.469 507.465,852.449 C 394.613,828.992 305.688,740.121 281.996,627.211 l -14.043,-4.508 c 22.852,123.668 120.293,221.11 243.867,243.766" /><path
         id="path22"
         style="fill:#1b458f;fill-opacity:1;fill-rule:nonzero;stroke:none"
         d="m 992.137,558.43 v 2.832 h -0.008 v 5.683 H 566.938 l 74.824,-69.132 285.32,61.582 -269.25,-86.219 -90.894,-293.594 v -37.844 h 5.761 v 0 h 2.735 V 0 L 1133.88,0.0195313 V 558.43 Z M 865.938,511.152 C 843.086,387.52 745.645,290.09 622.133,267.414 l 4.336,14.031 c 112.808,23.469 201.722,112.317 225.414,225.207 l 14.055,4.5" /><path
         id="path24"
         style="fill:#000f24;fill-opacity:1;fill-rule:evenodd;stroke:none"
         d="m 2131.07,784.023 c -1.38,-2.128 -34.68,-52.078 -106.23,-52.078 -36.77,0 -68.1,11.887 -90.59,34.387 -22.02,22.012 -34.65,53.395 -34.65,86.106 0,31.343 11.3,60.425 31.83,81.89 23.46,24.535 57.5,37.504 98.42,37.504 34.61,0 66.3,-12.629 89.23,-35.559 21.66,-21.656 33.6,-50.769 33.6,-81.96 0,-19.094 -1.68,-40.25 -21.61,-70.29 z m -236.52,120.403 c -5.26,0 -6.47,4.105 -9.18,15.976 -5.51,24.004 -13.87,24.004 -44.96,23.989 l -27.97,-0.094 c 0.21,-12.633 0.13,-35.082 0.04,-58.852 -0.19,-51.031 -0.43,-114.218 1.86,-124.285 0.91,-3.98 9.95,-7.203 14.55,-8.043 l 8.59,-1.109 c 8.92,-1.055 12.97,-1.535 15.43,-5.305 2.09,-3.215 1.64,-6.566 -1.16,-8.734 -1.67,-1.293 -4.96,-1.289 -22.75,-0.668 -9.52,0.328 -21.36,0.742 -34.98,0.82 -16.91,0 -27.91,-0.531 -35.94,-0.922 -9.22,-0.453 -14.12,-0.695 -18.79,0.278 -1.79,0.703 -2.91,2.046 -3.33,3.816 -0.51,2.043 0.02,4.227 1.45,5.988 2.46,3.028 4.8,3.282 11.07,3.953 2.87,0.309 6.1,0.672 10.22,1.262 5.46,0.981 16.83,5.348 17.38,8.484 1.2,7.809 1.6,113.25 1.8,163.918 l 0.07,19.278 -42.38,-0.141 c -11.84,-0.113 -19.42,-4.39 -28.94,-16.265 -2.18,-3.278 -8.31,-11.582 -12.65,-16.997 -2.54,-3.144 -6.79,-6.281 -10.42,-4.765 -1.35,0.558 -3.52,2.211 -2.99,6.957 l 14.76,58.758 c 0.49,2.308 2.36,6.211 6.28,6.211 4.39,0 5.16,-1.43 8.41,-7.481 l 1.4,-2.621 c 2.73,-4.422 4.88,-7.918 23.88,-7.523 l 143.66,-0.606 c 0.65,0 1.94,0.36 2.18,1.078 5.59,11.235 8.93,17.516 13.22,17.516 3.13,-0.016 6.87,-1.719 6.87,-9.762 l -0.04,-58.094 c -0.33,-3.765 -2.81,-6.015 -6.64,-6.015 z M 1724.17,742.434 c -0.28,-2.051 -1.59,-3.582 -2.72,-4.329 -3.15,-1.296 -8.56,-1.14 -19.54,-0.695 -6.07,0.25 -14.39,0.602 -22.98,0.52 -7.44,-0.063 -14.27,-0.278 -21.19,-0.512 -14.64,-0.473 -18.95,-0.551 -20.94,0.805 -1.94,1.523 -3.28,4.957 -1.91,8.332 1.5,3.601 4.24,3.91 10.24,4.582 2.6,0.289 5.71,0.652 9.72,1.258 2.05,0.398 6.85,1.339 7.89,3.07 -0.38,2.719 -8.8,25.953 -20.71,58.101 l -8.93,23.969 c -36.67,1.973 -61.44,0.985 -69.07,0.574 l -9.75,-26.203 -3.12,-8.386 -16.24,-43.75 c -0.6,-1.817 -0.62,-3.231 -0.04,-4.219 1.17,-1.996 4.71,-2.688 6.82,-3.098 3.57,-0.543 6.25,-0.781 8.48,-0.984 6.21,-0.574 9.62,-0.891 11.96,-6.531 0.64,-1.739 0.53,-3.442 -0.32,-4.805 -0.84,-1.34 -2.29,-2.172 -4.11,-2.352 -7.82,-0.746 -15.32,-0.496 -24,-0.207 -5.45,0.192 -12.62,0.438 -20.56,0.356 -7.54,-0.078 -14.13,-0.278 -19.42,-0.446 -12,-0.359 -14.25,-0.355 -15.63,0.489 -1.46,0.89 -3.08,2.656 -3.24,4.953 -0.09,1.336 0.27,3.324 2.52,5.199 3.15,2.582 5.58,2.805 11.49,3.336 2.9,0.262 6.67,0.609 11.85,1.305 4.01,0.547 12.8,4.367 15.11,8.988 1.85,3.695 21.08,54.801 39.69,104.219 l 0.78,2.113 c 16.8,44.617 35.83,95.187 40.89,107.621 l 11.68,1.707 c 2.27,-2.266 24.43,-60.012 55.58,-141.387 15.06,-39.324 28.07,-73.3 29.67,-77.035 2.55,-4.281 9.83,-5.519 13.74,-6.183 10.15,-1.645 11.91,-2.27 14.49,-5.172 1.81,-2.02 1.99,-3.946 1.82,-5.203 z m -253.86,-8.563 c -1.63,-1.805 -1.87,-1.922 -2.12,-1.941 l -8.23,-0.719 c -31.79,31.223 -102.41,108.469 -144.6,154.621 l -27.77,30.305 c 0.04,-28.289 0.24,-138.637 1.1,-158.321 0.72,-3.558 7.09,-4.707 10.48,-5.316 4.42,-0.641 7.71,-1 10.1,-1.266 6.71,-0.726 9.05,-0.98 11.53,-4.007 2.69,-3.329 1.93,-6.723 0.1,-8.461 -1.84,-1.739 -5.99,-1.676 -20.1,-1.188 -5.9,0.215 -14.81,0.543 -23.63,0.469 -7.84,-0.051 -15.59,-0.32 -21.82,-0.531 -14.22,-0.493 -16.87,-0.504 -18.3,0.464 -1.13,0.75 -1.91,1.997 -2.14,3.43 -0.19,1.27 -0.03,3.25 1.77,5.469 2.45,3.008 4.77,3.262 11.06,3.949 2.81,0.305 6.1,0.668 10.22,1.258 4.93,0.898 10.65,3.805 10.94,5.547 1.62,9.742 1.1,123.691 0.76,166.742 -0.45,11.418 -1.14,14.781 -1.84,16.715 -3.56,9.98 -19.72,11.066 -26.62,11.527 -1.68,0.113 -2.7,0.18 -3.39,0.352 l -2.2,10.344 49.31,2.96 c 4.19,-2.289 12.31,-8.328 19.77,-16.183 L 1451.6,788.359 c -1.21,39.68 -5.07,129.446 -6.24,156.52 -0.77,4.297 -7.34,5.488 -10.48,6.059 -4.92,0.714 -8.47,1.093 -10.58,1.324 -6.27,0.679 -8.62,0.933 -11.09,3.961 -2.69,3.324 -1.94,6.718 -0.1,8.465 1.85,1.738 6,1.671 20.18,1.167 6.71,-0.234 15.05,-0.527 23.54,-0.468 7.86,0.066 15.62,0.336 21.86,0.547 14.19,0.492 16.84,0.504 18.3,-0.485 1.12,-0.761 1.89,-2.015 2.1,-3.433 0.19,-1.254 0.04,-3.215 -1.75,-5.45 -2.48,-3.019 -4.82,-3.273 -11.11,-3.953 -2.73,-0.293 -5.99,-0.656 -10.19,-1.25 -6.06,-1.097 -10.96,-3.98 -10.9,-4.992 0.05,-1.035 5.02,-167.601 4.93,-181.961 l 0.49,-29.847 z M 1133.86,1133.86 V 575.488 h 558.43 v 62.305 h 17.01 l -0.01,-62.305 h 558.43 v 558.372 z m 436.69,-278.282 c 8.41,-0.523 31.68,-1.715 56.09,-0.707 l -28.19,75.266 z m 454.64,101.762 c -23.92,0 -43.67,-7.613 -58.69,-22.637 -22.03,-22.031 -29.88,-56.137 -29.88,-80.707 0,-24.094 8.41,-60.629 32.11,-84.328 14.75,-14.754 33.02,-22.234 54.32,-22.234 30.84,0 54.22,10.039 69.5,29.836 13.84,17.941 20.87,43.39 20.87,75.644 0,34.82 -9.38,61.852 -27.87,80.34 -20.96,20.957 -46.81,24.086 -60.36,24.086" /><path
         id="path26"
         style="fill:#000f24;fill-opacity:1;fill-rule:evenodd;stroke:none"
         d="m 2162.92,388.703 c -2.47,-3.023 -4.81,-3.277 -11.07,-3.957 -2.65,-0.277 -5.94,-0.648 -10.22,-1.25 -6.06,-1.109 -10.96,-3.988 -10.91,-5 0.06,-1.195 5.02,-167.59 4.93,-181.957 l 0.5,-29.844 -10.45,-3.336 c -32.16,31.422 -102.56,108.442 -144.63,154.457 l -27.89,30.446 c 0.04,-28.289 0.23,-138.657 1.09,-158.309 0.73,-3.555 7.31,-4.746 10.44,-5.312 4.84,-0.711 8.31,-1.082 10.6,-1.325 6.26,-0.679 8.6,-0.933 11.08,-3.961 2.68,-3.328 1.93,-6.718 0.09,-8.464 -1.84,-1.739 -5.99,-1.672 -20.16,-1.168 -6.71,0.234 -15.06,0.527 -23.57,0.457 -7.4,-0.059 -14.89,-0.309 -20.91,-0.512 -15.37,-0.527 -17.79,-0.531 -19.22,0.449 -1.12,0.754 -1.9,2.004 -2.12,3.43 -0.19,1.258 -0.04,3.23 1.76,5.453 2.47,3.027 4.81,3.281 11.08,3.953 3,0.332 6.23,0.692 10.21,1.258 5.02,0.918 10.64,3.769 10.94,5.551 1.94,11.699 0.77,165.23 0.76,166.746 -0.45,11.414 -1.15,14.781 -1.84,16.719 -3.55,9.953 -19.7,11.046 -26.63,11.515 -1.88,0.137 -2.76,0.196 -3.4,0.36 l -2.18,10.332 49.3,2.976 c 4.21,-2.316 12.36,-8.375 19.77,-16.187 l 146.91,-161.735 c -1.19,39.391 -5.04,128.989 -6.22,156.028 -0.78,4.793 -7.37,5.984 -10.51,6.558 -5.02,0.719 -8.63,1.102 -10.57,1.305 -6.26,0.68 -8.61,0.934 -11.09,3.976 -3.07,3.809 -1.5,7.11 -0.09,8.469 1.84,1.715 5.97,1.653 20.09,1.164 6.73,-0.234 15.1,-0.527 23.63,-0.453 7.87,0.055 15.64,0.317 21.88,0.531 14.4,0.489 16.82,0.5 18.27,-0.484 1.13,-0.758 1.9,-2.016 2.1,-3.437 0.2,-1.254 0.04,-3.223 -1.75,-5.442 z M 1900.35,174.551 c -0.28,-2.067 -1.64,-3.617 -2.73,-4.321 -3.16,-1.304 -8.58,-1.144 -19.57,-0.699 -5.69,0.239 -14.28,0.602 -22.94,0.532 -7.54,-0.067 -14.59,-0.293 -20.81,-0.493 -15.01,-0.504 -19.32,-0.586 -21.32,0.793 -1.55,1.203 -3.44,4.524 -1.91,8.313 1.51,3.613 4.25,3.922 10.26,4.59 2.75,0.308 5.83,0.672 9.67,1.246 2.05,0.406 6.88,1.343 7.93,3.086 -0.34,2.578 -8.58,25.375 -20.73,58.105 l -8.91,23.965 c -36.57,1.965 -61.42,0.973 -69.08,0.559 l -10.47,-28.137 -18.64,-50.195 c -0.6,-1.805 -0.62,-3.223 -0.04,-4.219 1.17,-1.988 4.72,-2.684 6.8,-3.094 3.52,-0.527 6.18,-0.777 8.32,-0.973 6.39,-0.586 9.8,-0.898 12.13,-6.539 0.66,-1.738 0.55,-3.445 -0.31,-4.812 -0.85,-1.344 -2.31,-2.176 -4.11,-2.336 -7.94,-0.762 -15.5,-0.508 -24.24,-0.211 -5.9,0.203 -12.57,0.43 -20.31,0.352 -7.61,-0.079 -14.49,-0.293 -19.51,-0.454 -11.95,-0.355 -14.19,-0.351 -15.55,0.493 -1.45,0.89 -3.07,2.656 -3.24,4.953 -0.09,1.336 0.26,3.324 2.52,5.191 3.15,2.59 5.6,2.813 11.51,3.344 3,0.273 6.75,0.613 11.83,1.305 4.02,0.554 12.81,4.39 15.11,8.988 1.89,3.789 22.47,58.461 40.62,106.703 15.87,42.168 35.61,94.648 40.73,107.262 l 11.69,1.699 c 2.29,-2.27 24.52,-60.215 55.77,-141.871 14.96,-39.067 27.88,-72.828 29.48,-76.551 2.55,-4.289 9.84,-5.523 13.75,-6.184 10.03,-1.628 11.93,-2.304 14.49,-5.179 1.8,-2.028 1.97,-3.949 1.81,-5.211 z m -253,-4.457 c -1.69,-1.301 -4.99,-1.293 -22.81,-0.664 -9.5,0.328 -21.33,0.738 -34.91,0.82 -17.47,0 -28.78,-0.566 -36.27,-0.937 -8.9,-0.434 -13.81,-0.676 -18.47,0.292 -1.78,0.708 -2.9,2.04 -3.33,3.801 -0.51,2.055 0.02,4.242 1.45,6 2.47,3.028 4.82,3.282 11.09,3.961 2.9,0.317 6.15,0.676 10.2,1.258 5.47,0.992 16.83,5.367 17.38,8.48 1.22,7.883 1.62,114.211 1.8,165.309 l 0.08,17.895 -42.39,-0.141 c -11.83,-0.121 -19.42,-4.398 -28.94,-16.266 -2.11,-3.191 -8.23,-11.484 -12.64,-16.996 -2.55,-3.148 -6.8,-6.289 -10.41,-4.769 -1.09,0.449 -3.55,2.019 -3,6.961 l 14.75,58.75 c 0.49,2.312 2.36,6.226 6.28,6.226 4.41,0 5.17,-1.437 8.4,-7.472 l 1.42,-2.641 c 2.72,-4.422 4.87,-7.914 23.87,-7.504 l 143.67,-0.625 c 0.65,0 1.94,0.356 2.17,1.074 5.59,11.235 8.93,17.52 13.21,17.52 3.14,-0.012 6.89,-1.711 6.89,-9.75 l -0.04,-58.098 c -0.34,-3.769 -2.82,-6.019 -6.64,-6.019 -5.26,0 -6.47,4.101 -9.18,15.972 -5.52,24 -13.86,23.992 -44.92,23.989 l -28.01,-0.082 c 0.21,-12.649 0.12,-35.098 0.03,-58.864 -0.19,-51.172 -0.43,-114.23 1.87,-124.289 0.91,-3.957 9.94,-7.199 14.54,-8.051 3.99,-0.562 7.28,-0.949 9.43,-1.199 8.08,-0.953 12.13,-1.437 14.59,-5.195 2.5,-3.86 0.94,-7.121 -1.16,-8.746 z m -181.51,46.058 c -1.38,-2.129 -34.67,-52.074 -106.23,-52.074 -36.77,0 -68.1,11.891 -90.6,34.379 -22.01,22.023 -34.65,53.41 -34.65,86.109 0,31.344 11.31,60.426 31.84,81.895 23.46,24.535 57.5,37.504 98.42,37.504 34.61,0 66.3,-12.625 89.23,-35.551 21.67,-21.676 33.6,-50.781 33.6,-81.957 0,-19.098 -1.67,-40.254 -21.61,-70.305 z m 243.45,342.286 0.01,-62.364 h -17.01 v 62.364 H 1133.86 V 0.015625 H 2267.72 V 558.438 Z m 37.45,-270.731 c 8.37,-0.527 31.54,-1.727 56.07,-0.719 l -28.18,75.282 z m -386.78,101.77 c -23.92,0 -43.66,-7.618 -58.68,-22.637 -22.04,-22.039 -29.89,-56.152 -29.89,-80.719 0,-24.09 8.41,-60.625 32.11,-84.324 14.75,-14.75 33.02,-22.231 54.32,-22.231 30.85,0 54.23,10.036 69.5,29.832 13.85,17.942 20.87,43.395 20.87,75.653 0,34.82 -9.37,61.844 -27.86,80.336 -20.97,20.961 -46.82,24.09 -60.37,24.09" /></g></g></svg>