<?xml version="1.0" encoding="UTF-8" standalone="no"?>
<svg
   xmlns:dc="http://purl.org/dc/elements/1.1/"
   xmlns:cc="http://creativecommons.org/ns#"
   xmlns:rdf="http://www.w3.org/1999/02/22-rdf-syntax-ns#"
   xmlns:svg="http://www.w3.org/2000/svg"
   xmlns="http://www.w3.org/2000/svg"
   viewBox="0 0 151.18668 302.35999"
   height="302.35999"
   width="151.18668"
   xml:space="preserve"
   id="svg2"
   version="1.1"><metadata
     id="metadata8"><rdf:RDF><cc:Work
         rdf:about=""><dc:format>image/svg+xml</dc:format><dc:type
           rdf:resource="http://purl.org/dc/dcmitype/StillImage" /></cc:Work></rdf:RDF></metadata><defs
     id="defs6" /><g
     transform="matrix(1.3333333,0,0,-1.3333333,0,302.36)"
     id="g10"><g
       transform="scale(0.1)"
       id="g12"><path
         id="path14"
         style="fill:#ffffff;fill-opacity:1;fill-rule:nonzero;stroke:none"
         d="M 1133.87,0 H 0.0078125 V 2267.71 H 1133.87 V 0" /><path
         id="path16"
         style="fill:#3e89d0;fill-opacity:1;fill-rule:nonzero;stroke:none"
         d="M 141.738,1692.29 H 0 L 0.0195313,1133.88 558.418,1133.86 v 141.74 h 2.93 v 0 h 5.586 v 425.2 l -69.024,-74.94 61.504,-285.73 -86.094,269.64 -293.183,91.03 h -38.399 v -5.61 z m 126.114,-46.73 14.003,-4.35 c 23.438,-112.99 112.168,-202.03 224.903,-225.76 l 4.512,-14.08 c -123.477,22.87 -220.782,120.46 -243.418,244.19" /><path
         id="path18"
         style="fill:#3e89d0;fill-opacity:1;fill-rule:nonzero;stroke:none"
         d="m 1133.88,2267.73 -558.45,-0.01 v -141.73 h -8.496 V 1700.8 l 69.023,74.94 -61.504,285.72 86.094,-269.65 293.172,-91.01 h 38.418 v 5.66 2.83 h 141.743 z m -511.302,-267.5 c 123.524,-22.87 220.86,-120.51 243.485,-244.28 l -14.02,4.35 c -23.41,113.06 -112.18,202.14 -224.973,225.85 l -4.492,14.08" /><path
         id="path20"
         style="fill:#1b458f;fill-opacity:1;fill-rule:nonzero;stroke:none"
         d="m 558.418,2125.99 v 141.73 L 0.0195313,2267.73 0,1709.29 h 141.738 v -2.75 -5.74 h 425.196 l -74.844,69.12 -285.293,-61.6 269.238,86.23 90.899,293.59 v -387.34 425.19 h -5.684 z m -46.602,-125.66 -4.355,-14.03 C 394.609,1962.85 305.684,1873.98 281.992,1761.07 l -14.043,-4.5 c 22.852,123.66 120.293,221.11 243.867,243.76" /><path
         id="path22"
         style="fill:#1b458f;fill-opacity:1;fill-rule:nonzero;stroke:none"
         d="m 992.137,1692.29 v 2.83 h -0.008 v 5.68 H 566.934 l 74.824,-69.12 285.324,61.58 -269.25,-86.22 -90.898,-293.6 v -37.84 h 5.761 v 0 h 2.735 v -141.74 l 558.45,0.02 v 558.41 z M 865.938,1645.02 C 843.086,1521.38 745.645,1423.95 622.129,1401.27 l 4.336,14.04 c 112.812,23.46 201.726,112.31 225.418,225.2 l 14.055,4.51" /><path
         id="path24"
         style="fill:#000f24;fill-opacity:1;fill-rule:evenodd;stroke:none"
         d="m 997.215,784.008 c -1.379,-2.129 -34.672,-52.078 -106.227,-52.078 -36.769,0 -68.097,11.886 -90.593,34.386 -22.02,22.016 -34.649,53.395 -34.649,86.106 0,31.344 11.305,60.426 31.828,81.891 23.465,24.535 57.5,37.503 98.422,37.503 34.609,0 66.297,-12.628 89.227,-35.554 21.667,-21.66 33.597,-50.774 33.597,-81.965 0,-19.09 -1.67,-40.25 -21.605,-70.289 z M 760.699,904.41 c -5.265,0 -6.472,4.106 -9.179,15.977 -5.516,24.004 -13.868,24.004 -44.957,23.988 l -27.973,-0.094 c 0.207,-12.633 0.125,-35.082 0.031,-58.851 -0.187,-51.032 -0.43,-114.219 1.871,-124.285 0.91,-3.981 9.942,-7.204 14.543,-8.043 l 8.594,-1.11 c 8.918,-1.054 12.973,-1.531 15.422,-5.304 2.09,-3.215 1.648,-6.567 -1.153,-8.735 -1.668,-1.293 -4.964,-1.289 -22.753,-0.668 -9.516,0.328 -21.356,0.742 -34.977,0.82 -16.906,0 -27.906,-0.531 -35.941,-0.921 -9.223,-0.454 -14.122,-0.696 -18.793,0.277 -1.782,0.703 -2.907,2.047 -3.329,3.82 -0.503,2.039 0.024,4.223 1.45,5.985 2.465,3.027 4.808,3.281 11.07,3.957 2.871,0.304 6.102,0.668 10.219,1.257 5.469,0.981 16.832,5.348 17.383,8.489 1.199,7.804 1.605,113.246 1.796,163.914 l 0.079,19.277 -42.387,-0.14 c -11.836,-0.114 -19.422,-4.391 -28.938,-16.266 -2.183,-3.277 -8.316,-11.582 -12.652,-16.996 -2.539,-3.145 -6.785,-6.281 -10.418,-4.766 -1.344,0.563 -3.516,2.211 -2.988,6.957 l 14.754,58.762 c 0.488,2.305 2.363,6.211 6.285,6.211 4.394,0 5.16,-1.434 8.402,-7.484 l 1.406,-2.622 c 2.731,-4.421 4.883,-7.918 23.879,-7.523 l 143.66,-0.605 c 0.657,0 1.946,0.363 2.18,1.078 5.594,11.238 8.934,17.515 13.219,17.515 3.133,-0.015 6.875,-1.718 6.875,-9.761 l -0.039,-58.094 c -0.332,-3.766 -2.813,-6.016 -6.641,-6.016 z M 590.316,742.418 c -0.273,-2.051 -1.586,-3.578 -2.722,-4.328 -3.153,-1.297 -8.555,-1.141 -19.531,-0.695 -6.075,0.25 -14.395,0.605 -22.981,0.519 -7.445,-0.062 -14.273,-0.277 -21.191,-0.512 -14.645,-0.472 -18.953,-0.55 -20.946,0.805 -1.941,1.523 -3.273,4.957 -1.91,8.332 1.508,3.602 4.242,3.91 10.238,4.586 2.602,0.285 5.715,0.648 9.723,1.254 2.051,0.398 6.852,1.344 7.895,3.07 -0.379,2.719 -8.805,25.953 -20.719,58.102 l -8.926,23.969 c -36.672,1.972 -61.445,0.988 -69.066,0.578 l -9.754,-26.207 -3.121,-8.383 -16.235,-43.75 c -0.605,-1.82 -0.617,-3.235 -0.039,-4.219 1.164,-2 4.711,-2.691 6.817,-3.101 3.57,-0.543 6.254,-0.782 8.484,-0.981 6.203,-0.578 9.613,-0.894 11.953,-6.535 0.645,-1.738 0.531,-3.442 -0.312,-4.805 -0.84,-1.336 -2.301,-2.172 -4.118,-2.351 -7.82,-0.746 -15.32,-0.496 -23.996,-0.207 -5.457,0.191 -12.625,0.441 -20.562,0.355 -7.539,-0.078 -14.125,-0.277 -19.414,-0.441 -12.004,-0.364 -14.254,-0.36 -15.637,0.488 -1.457,0.887 -3.074,2.656 -3.234,4.949 -0.098,1.34 0.261,3.324 2.519,5.199 3.149,2.582 5.578,2.805 11.485,3.336 2.898,0.266 6.672,0.61 11.855,1.305 4.012,0.547 12.797,4.371 15.106,8.988 1.851,3.696 21.086,54.801 39.687,104.219 l 0.785,2.113 c 16.797,44.618 35.828,95.188 40.887,107.621 l 11.68,1.707 c 2.273,-2.265 24.433,-60.011 55.586,-141.386 15.05,-39.324 28.058,-73.301 29.668,-77.035 2.546,-4.278 9.828,-5.52 13.738,-6.184 10.152,-1.645 11.91,-2.27 14.492,-5.172 1.801,-2.019 1.984,-3.945 1.816,-5.203 z m -253.863,-8.563 c -1.629,-1.804 -1.863,-1.921 -2.117,-1.941 l -8.223,-0.719 C 294.32,762.418 223.699,839.664 181.508,885.816 l -27.77,30.309 c 0.039,-28.293 0.235,-138.641 1.094,-158.32 0.731,-3.563 7.09,-4.707 10.484,-5.321 4.418,-0.636 7.707,-1 10.102,-1.261 6.711,-0.731 9.055,-0.985 11.535,-4.012 2.684,-3.328 1.93,-6.723 0.094,-8.461 -1.836,-1.738 -5.988,-1.676 -20.094,-1.187 -5.902,0.214 -14.816,0.542 -23.637,0.468 -7.839,-0.051 -15.593,-0.32 -21.824,-0.531 -14.219,-0.492 -16.863,-0.504 -18.301,0.465 -1.125,0.75 -1.902,1.996 -2.132,3.43 -0.192,1.273 -0.039,3.25 1.761,5.472 2.453,3.008 4.774,3.262 11.071,3.946 2.812,0.304 6.097,0.667 10.214,1.257 4.926,0.899 10.657,3.805 10.942,5.547 1.621,9.742 1.101,123.692 0.762,166.742 -0.45,11.418 -1.145,14.782 -1.84,16.715 -3.559,9.981 -19.723,11.067 -26.621,11.528 -1.684,0.113 -2.7,0.183 -3.395,0.351 l -2.191,10.344 49.301,2.965 c 4.195,-2.293 12.32,-8.332 19.773,-16.188 l 146.906,-161.73 c -1.199,39.679 -5.062,129.445 -6.238,156.519 -0.762,4.297 -7.34,5.489 -10.473,6.059 -4.922,0.715 -8.468,1.094 -10.586,1.324 -6.269,0.68 -8.621,0.934 -11.09,3.961 -2.687,3.324 -1.937,6.719 -0.097,8.465 1.844,1.738 5.996,1.672 20.18,1.168 6.703,-0.235 15.054,-0.527 23.539,-0.469 7.859,0.067 15.621,0.336 21.855,0.547 14.195,0.492 16.844,0.504 18.301,-0.484 1.129,-0.762 1.894,-2.016 2.105,-3.43 0.188,-1.258 0.035,-3.219 -1.758,-5.449 -2.468,-3.024 -4.812,-3.278 -11.101,-3.957 -2.727,-0.293 -5.988,-0.657 -10.195,-1.25 -6.051,-1.098 -10.954,-3.981 -10.899,-4.993 0.051,-1.031 5.02,-167.601 4.93,-181.96 l 0.492,-29.848 z M 0.0078125,1133.85 V 575.473 H 558.438 v 62.304 h 17.011 l -0.011,-62.304 H 1133.87 V 1133.85 Z M 436.699,855.563 c 8.406,-0.524 31.676,-1.715 56.082,-0.708 l -28.183,75.266 z m 454.637,101.761 c -23.918,0 -43.664,-7.613 -58.684,-22.636 -22.035,-22.032 -29.89,-56.137 -29.89,-80.708 0,-24.093 8.414,-60.628 32.117,-84.328 14.75,-14.754 33.019,-22.234 54.32,-22.234 30.84,0 54.223,10.039 69.504,29.84 13.84,17.937 20.863,43.387 20.863,75.64 0,34.821 -9.375,61.852 -27.863,80.34 -20.961,20.957 -46.816,24.086 -60.367,24.086" /><path
         id="path26"
         style="fill:#000f24;fill-opacity:1;fill-rule:evenodd;stroke:none"
         d="m 1029.07,388.688 c -2.47,-3.024 -4.81,-3.278 -11.07,-3.958 -2.65,-0.277 -5.95,-0.648 -10.23,-1.25 -6.05,-1.105 -10.954,-3.988 -10.899,-5 0.051,-1.195 5.019,-167.589 4.929,-181.957 l 0.49,-29.843 -10.446,-3.336 C 959.691,194.766 889.289,271.789 847.223,317.805 l -27.895,30.441 c 0.039,-28.289 0.231,-138.656 1.09,-158.308 0.734,-3.555 7.312,-4.747 10.445,-5.313 4.836,-0.707 8.301,-1.078 10.598,-1.324 6.258,-0.68 8.598,-0.934 11.078,-3.961 2.68,-3.328 1.93,-6.719 0.086,-8.465 -1.84,-1.738 -5.988,-1.672 -20.156,-1.168 -6.711,0.234 -15.063,0.527 -23.567,0.461 -7.402,-0.063 -14.894,-0.313 -20.914,-0.516 -15.367,-0.527 -17.793,-0.531 -19.218,0.45 -1.125,0.753 -1.899,2.003 -2.125,3.429 -0.188,1.258 -0.04,3.231 1.765,5.453 2.465,3.028 4.809,3.282 11.082,3.954 3,0.332 6.227,0.691 10.207,1.257 5.016,0.918 10.637,3.77 10.934,5.551 1.949,11.699 0.777,165.231 0.762,166.75 -0.442,11.41 -1.145,14.777 -1.84,16.719 -3.551,9.949 -19.692,11.043 -26.625,11.512 -1.887,0.136 -2.758,0.195 -3.403,0.363 l -2.179,10.332 49.3,2.973 c 4.215,-2.317 12.356,-8.375 19.774,-16.188 l 146.91,-161.734 c -1.195,39.39 -5.047,128.992 -6.223,156.027 -0.785,4.793 -7.379,5.984 -10.519,6.559 -5.012,0.722 -8.617,1.101 -10.559,1.308 -6.265,0.676 -8.613,0.93 -11.09,3.973 -3.074,3.808 -1.507,7.109 -0.093,8.469 1.836,1.714 5.968,1.652 20.09,1.164 6.726,-0.235 15.101,-0.528 23.625,-0.453 7.871,0.054 15.647,0.316 21.887,0.531 14.4,0.488 16.82,0.5 18.27,-0.485 1.13,-0.757 1.9,-2.015 2.1,-3.433 0.2,-1.258 0.04,-3.223 -1.75,-5.445 z M 766.496,174.535 c -0.277,-2.062 -1.644,-3.617 -2.73,-4.32 -3.161,-1.305 -8.575,-1.141 -19.571,-0.699 -5.683,0.242 -14.277,0.601 -22.937,0.535 -7.543,-0.071 -14.594,-0.293 -20.809,-0.496 -15.015,-0.5 -19.316,-0.586 -21.32,0.793 -1.551,1.207 -3.445,4.527 -1.914,8.316 1.515,3.609 4.254,3.918 10.265,4.59 2.75,0.305 5.825,0.668 9.665,1.242 2.058,0.406 6.878,1.344 7.929,3.086 -0.344,2.578 -8.578,25.379 -20.722,58.106 l -8.918,23.964 c -36.567,1.965 -61.422,0.973 -69.071,0.559 L 595.887,242.074 577.25,191.879 c -0.605,-1.805 -0.621,-3.223 -0.039,-4.219 1.164,-1.984 4.711,-2.683 6.797,-3.094 3.519,-0.527 6.183,-0.777 8.316,-0.972 6.391,-0.586 9.809,-0.899 12.133,-6.539 0.66,-1.739 0.547,-3.446 -0.312,-4.813 -0.848,-1.344 -2.309,-2.176 -4.11,-2.336 -7.941,-0.761 -15.492,-0.508 -24.238,-0.207 -5.895,0.199 -12.57,0.43 -20.313,0.352 -7.609,-0.078 -14.488,-0.293 -19.507,-0.457 -11.95,-0.356 -14.184,-0.352 -15.547,0.496 -1.457,0.887 -3.067,2.656 -3.239,4.949 -0.093,1.34 0.258,3.324 2.516,5.191 3.152,2.594 5.594,2.813 11.508,3.344 3.004,0.274 6.75,0.614 11.832,1.305 4.023,0.555 12.816,4.391 15.105,8.988 1.895,3.789 22.473,58.461 40.625,106.703 15.868,42.168 35.614,94.649 40.735,107.262 l 11.687,1.699 c 2.281,-2.269 24.512,-60.215 55.774,-141.871 14.949,-39.066 27.875,-72.824 29.472,-76.551 2.555,-4.289 9.844,-5.523 13.75,-6.183 10.035,-1.629 11.93,-2.305 14.489,-5.18 1.8,-2.027 1.976,-3.949 1.812,-5.211 z M 513.5,170.078 c -1.687,-1.297 -4.996,-1.293 -22.812,-0.664 -9.5,0.328 -21.329,0.738 -34.918,0.82 -17.461,0 -28.774,-0.566 -36.258,-0.937 -8.903,-0.434 -13.809,-0.672 -18.473,0.293 -1.781,0.707 -2.898,2.043 -3.328,3.801 -0.508,2.054 0.019,4.242 1.449,6 2.465,3.027 4.813,3.281 11.09,3.961 2.895,0.316 6.145,0.675 10.199,1.257 5.473,0.993 16.832,5.368 17.383,8.481 1.215,7.883 1.609,114.211 1.801,165.308 l 0.074,17.895 -42.394,-0.141 c -11.829,-0.121 -19.418,-4.398 -28.93,-16.265 -2.117,-3.192 -8.238,-11.485 -12.653,-16.996 -2.542,-3.149 -6.789,-6.289 -10.402,-4.77 -1.09,0.449 -3.555,2.02 -3,6.961 l 14.75,58.75 c 0.488,2.313 2.36,6.227 6.285,6.227 4.399,0 5.168,-1.434 8.391,-7.469 l 1.426,-2.645 c 2.718,-4.422 4.867,-7.914 23.871,-7.504 l 143.66,-0.625 c 0.656,0 1.945,0.356 2.18,1.075 5.586,11.234 8.925,17.519 13.207,17.519 3.14,-0.012 6.886,-1.707 6.886,-9.75 l -0.039,-58.097 c -0.34,-3.77 -2.82,-6.02 -6.636,-6.02 -5.258,0 -6.469,4.102 -9.184,15.973 -5.516,24 -13.859,23.992 -44.918,23.988 l -28.012,-0.082 c 0.207,-12.649 0.125,-35.098 0.032,-58.863 -0.188,-51.172 -0.43,-114.227 1.871,-124.289 0.902,-3.957 9.941,-7.2 14.535,-8.051 3.996,-0.559 7.281,-0.949 9.433,-1.199 8.079,-0.954 12.137,-1.438 14.59,-5.196 2.5,-3.859 0.946,-7.121 -1.156,-8.746 z m -181.512,46.059 c -1.383,-2.129 -34.675,-52.074 -106.226,-52.074 -36.778,0 -68.106,11.89 -90.602,34.378 -22.015,22.024 -34.648,53.411 -34.648,86.11 0,31.344 11.304,60.426 31.832,81.894 23.465,24.535 57.5,37.504 98.422,37.504 34.613,0 66.304,-12.625 89.234,-35.551 21.664,-21.675 33.598,-50.781 33.598,-81.957 0,-19.097 -1.668,-40.253 -21.61,-70.304 z m 243.45,342.285 0.011,-62.363 h -17.011 v 62.363 H 0.0078125 V 0 H 1133.87 v 558.422 z m 37.449,-270.731 c 8.371,-0.527 31.543,-1.722 56.074,-0.718 l -28.184,75.285 z M 226.113,389.465 c -23.925,0 -43.668,-7.617 -58.687,-22.637 -22.039,-22.043 -29.891,-56.152 -29.891,-80.723 0,-24.089 8.41,-60.625 32.117,-84.324 14.746,-14.75 33.02,-22.23 54.317,-22.23 30.844,0 54.222,10.035 69.496,29.836 13.855,17.937 20.875,43.39 20.875,75.648 0,34.82 -9.375,61.844 -27.867,80.336 -20.965,20.961 -46.817,24.094 -60.36,24.094" /></g></g></svg>